<svg width="20" height="20" viewBox="0 0 20 20" fill="none" xmlns="http://www.w3.org/2000/svg">
<path fill-rule="evenodd" clip-rule="evenodd" d="M9.79166 4.16699C10.1969 4.16699 10.5254 4.49548 10.5254 4.90069V14.6833C10.5254 15.0885 10.1969 15.417 9.79166 15.417C9.38646 15.417 9.05797 15.0885 9.05797 14.6833V4.90069C9.05797 4.49548 9.38646 4.16699 9.79166 4.16699Z" fill="#484964"/>
<path fill-rule="evenodd" clip-rule="evenodd" d="M4.38156 9.27349C4.66808 8.98696 5.13263 8.98696 5.41916 9.27349L9.79166 13.646L14.1642 9.27349C14.4507 8.98696 14.9152 8.98696 15.2018 9.27349C15.4883 9.56001 15.4883 10.0246 15.2018 10.3111L10.3105 15.2024C10.0239 15.4889 9.55939 15.4889 9.27286 15.2024L4.38156 10.3111C4.09503 10.0246 4.09503 9.56001 4.38156 9.27349Z" fill="#484964"/>
</svg>
