<svg width="22" height="28" viewBox="0 0 22 28" fill="none" xmlns="http://www.w3.org/2000/svg">
<path d="M11.0109 27.2173C12.4233 27.2173 13.5789 25.9982 13.5789 24.5082H8.443C8.443 25.9982 9.59857 27.2173 11.0109 27.2173ZM18.7147 19.0902V12.3176C18.7147 8.15925 16.6219 4.67814 12.9369 3.75707V2.836C12.9369 1.71175 12.0766 0.80423 11.0109 0.80423C9.94524 0.80423 9.08498 1.71175 9.08498 2.836V3.75707C5.41284 4.67814 3.30713 8.1457 3.30713 12.3176V19.0902L0.739197 21.7992V23.1537H21.2827V21.7992L18.7147 19.0902ZM16.1468 20.4447H5.87507V12.3176C5.87507 8.95841 7.81386 6.22229 11.0109 6.22229C14.208 6.22229 16.1468 8.95841 16.1468 12.3176V20.4447Z" fill="white"/>
</svg>
