<svg width="15" height="15" viewBox="0 0 15 15" fill="none" xmlns="http://www.w3.org/2000/svg">
<g clip-path="url(#clip0_11_45)">
<path d="M12.9668 1.17439H12.177C11.7817 1.17439 11.5187 0.933697 11.5214 0.582198C11.5242 0.2307 11.7871 0.000908265 12.1861 0C12.9115 0 13.6315 0 14.3533 0C14.7586 0 14.9944 0.237058 14.9953 0.644869C14.9953 1.37511 14.9953 2.10536 14.9953 2.8356C14.9953 3.21708 14.7559 3.47775 14.4114 3.47866C14.0668 3.47957 13.8265 3.2198 13.8238 2.84287C13.8238 2.58492 13.8238 2.32698 13.8238 2.06903L13.7766 2.0436C13.5517 2.27339 13.3459 2.5277 13.0974 2.72843C12.7755 2.99001 12.6839 3.29428 12.6867 3.70663C12.7039 6.98547 12.6966 10.2643 12.6966 13.5441V13.8093C12.7873 13.8093 12.8562 13.8202 12.926 13.8202C13.4012 13.8202 13.8764 13.8138 14.3506 13.8202C14.8403 13.8292 15.1313 14.2443 14.9427 14.653C14.9062 14.741 14.8473 14.8178 14.7718 14.8758C14.6964 14.9338 14.6071 14.971 14.5129 14.9837C14.4094 14.9961 14.3052 15.0012 14.201 14.9991H0.786941C0.689415 15.0014 0.591849 14.9968 0.494957 14.9855C0.361874 14.9671 0.239478 14.9024 0.149149 14.8028C0.0588196 14.7032 0.00630089 14.575 0.000761756 14.4405C-0.00696239 14.3058 0.0328612 14.1727 0.113263 14.0644C0.193664 13.9561 0.309519 13.8796 0.440549 13.8483C0.542268 13.8275 0.64597 13.8181 0.749762 13.8202C1.25756 13.8202 1.76445 13.8202 2.29129 13.8202V6.6594C2.23689 6.70481 2.19245 6.7366 2.15437 6.77566C1.79982 7.12988 1.44799 7.48683 1.09071 7.83924C0.848603 8.07721 0.557527 8.11808 0.312695 7.9555C0.246687 7.91331 0.189961 7.85808 0.145989 7.79318C0.102016 7.72829 0.0717196 7.6551 0.0569514 7.57808C0.0421832 7.50105 0.043254 7.42182 0.0600978 7.34523C0.0769416 7.26863 0.109203 7.19629 0.154913 7.13261C0.209213 7.05925 0.269903 6.99086 0.33627 6.92825L4.64258 2.61399C5.00529 2.25068 5.17577 2.22707 5.62644 2.45232C6.92314 3.10324 8.22014 3.75295 9.51745 4.40145C9.61356 4.44959 9.68701 4.49228 9.78948 4.38692C10.8244 3.3406 11.863 2.29791 12.9052 1.25886C12.9272 1.23184 12.9478 1.20364 12.9668 1.17439ZM6.92223 13.8074C6.92767 13.7411 6.93493 13.6839 6.93493 13.6258C6.93493 10.6146 6.93493 7.60369 6.93493 4.5931C6.9413 4.54225 6.93059 4.49072 6.90449 4.44664C6.87838 4.40257 6.83836 4.36845 6.79075 4.34968C6.33978 4.1317 5.89183 3.90797 5.4469 3.67848C5.40788 3.65071 5.35948 3.63952 5.31226 3.64735C5.26504 3.65518 5.22282 3.68138 5.19481 3.72025C4.65981 4.26521 4.11755 4.79746 3.58527 5.34241C3.52282 5.41293 3.48747 5.5034 3.48553 5.59764C3.48009 8.26975 3.48553 10.9428 3.47737 13.6149C3.47737 13.782 3.52996 13.8211 3.68774 13.8202C4.70334 13.8138 5.71803 13.8202 6.73362 13.8202C6.79347 13.8174 6.8515 13.812 6.92223 13.8074ZM8.12825 5.02543V13.7993H11.5051V4.37693L11.4317 4.31789C11.4047 4.38495 11.369 4.44816 11.3256 4.50591C10.9713 4.86921 10.6131 5.22858 10.251 5.58402C10.0216 5.81017 9.79764 5.84741 9.50384 5.70936C9.28078 5.604 9.06133 5.48956 8.84008 5.37875L8.12825 5.02543Z" fill="white"/>
</g>
<defs>
<clipPath id="clip0_11_45">
<rect width="15" height="15" fill="white"/>
</clipPath>
</defs>
</svg>
