<svg width="50" height="50" viewBox="0 0 50 50" fill="none" xmlns="http://www.w3.org/2000/svg">
<path d="M0.892944 16.0561C1.55008 15.4684 2.18577 14.8947 2.83246 14.3324C2.87095 14.2992 3.01943 14.3278 3.07607 14.373C4.56411 15.5624 6.25837 15.8581 8.122 15.4201C8.28143 15.3794 8.43732 15.3273 8.58832 15.2642C9.74752 14.8079 10.0269 13.4973 9.08323 12.7049C8.69225 12.3754 8.18304 12.1374 7.68703 11.9597C6.71259 11.61 5.70737 11.3424 4.71754 11.0197C3.65787 10.673 2.68674 10.1882 1.94601 9.35677C0.554754 7.79781 0.453021 4.7511 3.11731 3.29192C3.64907 3.00092 4.25562 2.82787 4.83686 2.62417C5.00184 2.56597 5.06783 2.50933 5.06453 2.34044C5.05408 1.77714 5.06068 1.21384 5.06068 0.651056V0.356934H7.86024C7.86409 0.437479 7.87069 0.520104 7.87124 0.602209C7.87124 1.08722 7.87124 1.57222 7.87124 2.05723C7.87124 2.42099 7.87124 2.41163 8.24188 2.46308C9.35654 2.61897 10.4195 2.92505 11.3972 3.46808C11.4522 3.49874 11.5034 3.53408 11.593 3.5902L10.1286 5.74416C9.47697 5.54149 8.86712 5.30245 8.23198 5.16578C7.10083 4.92311 5.97297 4.98443 4.88636 5.40274C3.95537 5.76078 3.57483 6.55533 3.93172 7.37742C4.12584 7.82172 4.52232 8.07219 4.95949 8.22809C5.87399 8.55703 6.80388 8.84855 7.73157 9.14267C8.80223 9.482 9.86355 9.83381 10.7533 10.5265C12.0599 11.544 12.568 12.881 12.3964 14.4317C12.1973 16.2629 10.9557 17.2939 9.21576 17.878C8.87262 17.9934 8.51023 18.0609 8.15224 18.1306C7.95318 18.1695 7.86354 18.2345 7.86959 18.4486C7.88664 19.054 7.87564 19.6599 7.87564 20.285H5.06453C5.06453 19.783 5.06453 19.2837 5.06453 18.7838C5.06453 18.5759 5.12612 18.3213 5.02108 18.1784C4.92925 18.0536 4.6433 18.0573 4.44313 18.0032C3.1635 17.6572 2.00925 17.0996 1.05022 16.211C1.00403 16.171 0.961682 16.1268 0.892944 16.0561Z" fill="url(#paint0_linear_1005_54863)"/>
<defs>
<linearGradient id="paint0_linear_1005_54863" x1="5.25519" y1="-6.55736" x2="19.5209" y2="9.49766" gradientUnits="userSpaceOnUse">
<stop offset="0.0899471" stop-color="#3D5A6C"/>
<stop offset="0.802439" stop-color="#72A98F"/>
</linearGradient>
</defs>
</svg>
