<svg width="466" height="80" viewBox="0 0 466 80" fill="none" xmlns="http://www.w3.org/2000/svg">
<path d="M-5 61.8369C-1.51685 60.8644 7.21782 60.5402 14.2913 67.0237C23.1331 75.1281 38.4343 75.2722 41.6206 69.6173C45.6396 62.4847 44.032 39.4683 56.0891 40.1166C62.5112 40.462 64.1271 48.221 64.1271 54.7045C64.1271 61.188 68.0397 69.6173 80.2032 69.6173C90.6527 69.6173 93.0641 62.8089 96.2793 56.9737C99.4945 51.1386 109.944 51.7869 109.944 58.9188C109.944 67.6473 109.944 78.3694 122.805 78.3694C145.369 78.3694 139.685 37.5241 144.508 7.37562C145.908 -1.37697 165.406 -2.34929 166.21 19.0463C167.101 42.7439 171.033 54.7038 171.837 56.9737C172.641 59.2437 176.66 64.7547 188.717 58.5954C198.362 53.6679 205.897 55.6772 208.008 58.5954C213.635 66.375 217.011 74.4146 227.299 74.1552C240.964 73.8108 241.768 42.7102 249.806 22.2869C251.847 17.1003 264.274 17.1003 264.274 25.5289C264.274 34.3474 262.667 46.9243 272.312 50.4904C277.409 52.3748 283.766 51.7871 286.781 46.9243C288.71 43.8122 290.8 22.2869 294.015 11.265C297.23 3.16072 309.287 4.78145 312.503 11.265C317.004 20.342 326.229 55.5248 346.262 46.9243C371.18 36.2267 383.757 44.3456 388.864 34.9298C394.491 24.5563 396.098 17.1003 421.016 22.2869C445.687 27.4223 460.402 23.4756 470.048 22.2869" stroke="url(#paint0_linear_1310_4682)" stroke-opacity="0.9" stroke-width="3" stroke-linecap="round" stroke-linejoin="round"/>
<defs>
<linearGradient id="paint0_linear_1310_4682" x1="174.64" y1="-25.1188" x2="186.995" y2="125.326" gradientUnits="userSpaceOnUse">
<stop offset="0.187989" stop-color="#433A3F"/>
<stop offset="0.750073" stop-color="#72A98F"/>
</linearGradient>
</defs>
</svg>
