<svg width="23" height="24" viewBox="0 0 23 24" fill="none" xmlns="http://www.w3.org/2000/svg">
<path d="M10.35 18.6617H12.65V16.3617H10.35V18.6617ZM11.5 0.261719C5.152 0.261719 0 5.41372 0 11.7617C0 18.1097 5.152 23.2617 11.5 23.2617C17.848 23.2617 23 18.1097 23 11.7617C23 5.41372 17.848 0.261719 11.5 0.261719ZM11.5 20.9617C6.4285 20.9617 2.3 16.8332 2.3 11.7617C2.3 6.69022 6.4285 2.56172 11.5 2.56172C16.5715 2.56172 20.7 6.69022 20.7 11.7617C20.7 16.8332 16.5715 20.9617 11.5 20.9617ZM11.5 4.86172C8.9585 4.86172 6.9 6.92022 6.9 9.46172H9.2C9.2 8.19672 10.235 7.16172 11.5 7.16172C12.765 7.16172 13.8 8.19672 13.8 9.46172C13.8 11.7617 10.35 11.4742 10.35 15.2117H12.65C12.65 12.6242 16.1 12.3367 16.1 9.46172C16.1 6.92022 14.0415 4.86172 11.5 4.86172Z" fill="white"/>
</svg>
