<svg width="31" height="30" viewBox="0 0 31 30" fill="none" xmlns="http://www.w3.org/2000/svg">
<path d="M22.1555 18.8679H20.7553L20.259 18.4048C21.996 16.4494 23.0417 13.9108 23.0417 11.1492C23.0417 4.99142 17.8839 0 11.5209 0C5.1578 0 0 4.99142 0 11.1492C0 17.307 5.1578 22.2985 11.5209 22.2985C14.3745 22.2985 16.9977 21.2864 19.0183 19.6055L19.4969 20.0858V21.4408L28.3591 30L31 27.4443L22.1555 18.8679ZM11.5209 18.8679C7.10749 18.8679 3.54488 15.4202 3.54488 11.1492C3.54488 6.87822 7.10749 3.43053 11.5209 3.43053C15.9342 3.43053 19.4969 6.87822 19.4969 11.1492C19.4969 15.4202 15.9342 18.8679 11.5209 18.8679Z" fill="url(#paint0_linear_1310_13684)" fill-opacity="0.9"/>
<defs>
<linearGradient id="paint0_linear_1310_13684" x1="11.7227" y1="-10.4089" x2="35.1314" y2="37.2285" gradientUnits="userSpaceOnUse">
<stop offset="0.187989" stop-color="#433A3F"/>
<stop offset="0.750073" stop-color="#72A98F"/>
</linearGradient>
</defs>
</svg>
