<svg width="20" height="20" viewBox="0 0 20 20" fill="none" xmlns="http://www.w3.org/2000/svg">
<path d="M10 11.5837C10.8744 11.5837 11.5833 10.8748 11.5833 10.0003C11.5833 9.12587 10.8744 8.41699 10 8.41699C9.12555 8.41699 8.41666 9.12587 8.41666 10.0003C8.41666 10.8748 9.12555 11.5837 10 11.5837Z" stroke="#484964" stroke-width="1.5" stroke-linecap="round" stroke-linejoin="round"/>
<path d="M15.8333 11.5837C16.7078 11.5837 17.4167 10.8748 17.4167 10.0003C17.4167 9.12588 16.7078 8.41699 15.8333 8.41699C14.9589 8.41699 14.25 9.12588 14.25 10.0003C14.25 10.8748 14.9589 11.5837 15.8333 11.5837Z" stroke="#484964" stroke-width="1.5" stroke-linecap="round" stroke-linejoin="round"/>
<path d="M4.16667 11.5837C5.04112 11.5837 5.75 10.8748 5.75 10.0003C5.75 9.12587 5.04112 8.41699 4.16667 8.41699C3.29222 8.41699 2.58334 9.12587 2.58334 10.0003C2.58334 10.8748 3.29222 11.5837 4.16667 11.5837Z" stroke="#484964" stroke-width="1.5" stroke-linecap="round" stroke-linejoin="round"/>
</svg>
