<svg width="13" height="15" viewBox="0 0 13 15" fill="none" xmlns="http://www.w3.org/2000/svg">
<path d="M5.68073 0V7.22958H6.71352V0H5.68073Z" fill="black"/>
<path d="M1.03317 8.06831C1.03292 7.14599 1.27975 6.24044 1.74798 5.44581C2.21622 4.65118 2.88878 3.9965 3.69572 3.54982L3.19481 2.64716C1.99731 3.31028 1.05308 4.35125 0.509516 5.60754C-0.0340453 6.86384 -0.14634 8.26476 0.190164 9.5916C0.526667 10.9184 1.29303 12.0965 2.36961 12.9419C3.44619 13.7873 4.7724 14.2525 6.14119 14.2648C7.50998 14.2771 8.84432 13.8358 9.93589 13.0098C11.0275 12.1839 11.8148 11.0197 12.1751 9.69914C12.5354 8.37855 12.4482 6.97584 11.9273 5.70999C11.4064 4.44414 10.481 3.3864 9.29555 2.70189L8.77811 3.59526C9.56328 4.04834 10.2153 4.70011 10.6688 5.48507C11.1222 6.27004 11.361 7.16052 11.3611 8.06703C11.3613 8.97354 11.1228 9.86412 10.6697 10.6492C10.2166 11.4344 9.56479 12.0864 8.7798 12.5398C7.9948 12.9931 7.1043 13.2319 6.19779 13.232C5.29129 13.2321 4.40072 12.9936 3.61562 12.5404C2.83052 12.0872 2.17854 11.4354 1.72522 10.6504C1.2719 9.86533 1.03322 8.97481 1.03317 8.06831Z" fill="black"/>
</svg>
