<svg width="38" height="45" viewBox="0 0 38 45" fill="none" xmlns="http://www.w3.org/2000/svg">
<path d="M36.2405 0.750559L36.2405 0.750488H36.2346L12.5537 0.750479L12.5515 0.750498C12.3009 0.752691 12.0594 0.847945 11.8769 1.0187L11.8769 1.01869L11.8747 1.02078L1.50786 10.9585L1.50765 10.9582L1.49924 10.9671C1.3717 11.102 1.28565 11.27 1.25206 11.452C1.21846 11.6341 1.23896 11.8216 1.31089 11.9923C1.38279 12.163 1.50276 12.3092 1.65572 12.4145L1.79753 12.2086L1.65572 12.4145C1.80862 12.5198 1.98852 12.5803 2.17435 12.5896L2.17433 12.5899H2.18687H20.2699L20.2699 43.7662L20.27 43.7698C20.2726 43.9582 20.3315 44.1412 20.4386 44.2967C20.5456 44.452 20.6959 44.573 20.8706 44.6458L20.8706 44.6459L20.8742 44.6473C20.9914 44.694 21.1164 44.7183 21.2426 44.7189L21.2461 44.7189C21.499 44.7166 21.7427 44.6195 21.9256 44.4459L21.9278 44.4438L36.9222 29.8671L36.9222 29.8671L36.9253 29.864C37.1028 29.6852 37.2037 29.4454 37.2047 29.1941V29.1931V1.69598H37.2049L37.2046 1.68834C37.197 1.43877 37.0911 1.20302 36.9111 1.02914C36.7312 0.855487 36.4911 0.756535 36.2405 0.750559ZM22.1992 2.66279L35.2459 2.65243V10.6882H22.1992V2.66279ZM12.9312 2.65223H20.2515V10.6882H4.55192L12.9312 2.65223ZM35.2459 28.7935L22.1992 41.4822V12.5899H35.2459V28.7935Z" fill="#354F5E" stroke="#354F5E" stroke-width="0.5"/>
</svg>
