<svg width="27" height="24" viewBox="0 0 27 24" fill="none" xmlns="http://www.w3.org/2000/svg">
<path d="M18.263 6.81348V10.7034H14.3731" stroke="#484964" stroke-width="1.2" stroke-linecap="round" stroke-linejoin="round"/>
<path d="M4 17.1868V13.2969H7.88991" stroke="#484964" stroke-width="1.2" stroke-linecap="round" stroke-linejoin="round"/>
<path d="M5.62728 10.0554C5.95609 9.12619 6.51491 8.29545 7.25162 7.64065C7.98833 6.98586 8.8789 6.52836 9.84024 6.31085C10.8016 6.09333 11.8024 6.12289 12.7492 6.39676C13.696 6.67063 14.558 7.17989 15.2548 7.87702L18.263 10.7037M4 13.297L7.0082 16.1236C7.70498 16.8208 8.567 17.33 9.51383 17.6039C10.4607 17.8778 11.4614 17.9073 12.4228 17.6898C13.3841 17.4723 14.2747 17.0148 15.0114 16.36C15.7481 15.7052 16.3069 14.8745 16.6357 13.9453" stroke="#484964" stroke-width="1.2" stroke-linecap="round" stroke-linejoin="round"/>
</svg>
