<svg width="34" height="35" viewBox="0 0 34 35" fill="none" xmlns="http://www.w3.org/2000/svg">
<path d="M29.3916 3.10433H27.6013C26.7052 3.10433 26.1091 2.55876 26.1153 1.76203C26.1215 0.965302 26.7175 0.444442 27.6219 0.442383C29.2662 0.442383 30.8982 0.442383 32.5342 0.442383C33.453 0.442383 33.9874 0.979714 33.9894 1.90409C33.9894 3.55931 33.9894 5.21453 33.9894 6.86975C33.9894 7.73442 33.4468 8.32528 32.6658 8.32734C31.8847 8.3294 31.3401 7.7406 31.3339 6.88623C31.3339 6.30155 31.3339 5.71686 31.3339 5.13218L31.227 5.07454C30.7173 5.5954 30.2507 6.17184 29.6875 6.62682C28.9579 7.21974 28.7503 7.90942 28.7565 8.84408C28.7955 16.2761 28.7791 23.7081 28.7791 31.1422V31.7434C28.9846 31.7434 29.1408 31.7681 29.2991 31.7681C30.3761 31.7681 31.4531 31.7537 32.5281 31.7681C33.638 31.7887 34.2977 32.7295 33.8702 33.6559C33.7874 33.8552 33.6538 34.0293 33.4829 34.1608C33.3119 34.2923 33.1096 34.3766 32.896 34.4053C32.6614 34.4335 32.4251 34.4452 32.1889 34.4403H1.78378C1.56272 34.4455 1.34157 34.4352 1.12195 34.4095C0.820298 34.3677 0.542866 34.2212 0.33812 33.9954C0.133373 33.7696 0.0143308 33.479 0.00177547 33.1742C-0.0157326 32.8689 0.0745343 32.5671 0.256778 32.3217C0.439021 32.0763 0.701625 31.9029 0.998627 31.8319C1.22919 31.7848 1.46425 31.7634 1.69951 31.7681C2.85052 31.7681 3.99948 31.7681 5.19365 31.7681V15.537C5.07033 15.64 4.96961 15.712 4.88329 15.8005C4.07964 16.6035 3.28215 17.4125 2.47233 18.2113C1.92355 18.7507 1.26378 18.8434 0.708825 18.4748C0.559205 18.3792 0.430628 18.254 0.330957 18.1069C0.231285 17.9598 0.162613 17.7939 0.129139 17.6194C0.0956642 17.4448 0.0980913 17.2652 0.136271 17.0916C0.17445 16.918 0.247576 16.754 0.351185 16.6096C0.474265 16.4433 0.611829 16.2883 0.76226 16.1464L10.5232 6.36742C11.3454 5.54393 11.7318 5.49041 12.7533 6.00097C15.6925 7.4764 18.6324 8.94907 21.5729 10.419C21.7908 10.5281 21.9573 10.6249 22.1895 10.3861C24.5354 8.01441 26.8895 5.65098 29.2518 3.29579C29.3018 3.23455 29.3485 3.17064 29.3916 3.10433ZM15.6904 31.7393C15.7028 31.589 15.7192 31.4593 15.7192 31.3275C15.7192 24.5021 15.7192 17.6774 15.7192 10.8534C15.7337 10.7381 15.7094 10.6213 15.6502 10.5214C15.591 10.4215 15.5003 10.3442 15.3924 10.3017C14.3702 9.80756 13.3549 9.30044 12.3464 8.78026C12.2579 8.71733 12.1482 8.69197 12.0412 8.70971C11.9341 8.72745 11.8384 8.78684 11.775 8.87496C10.5623 10.1102 9.33317 11.3166 8.12667 12.5519C7.98512 12.7117 7.90497 12.9168 7.90058 13.1304C7.88825 19.1872 7.90058 25.246 7.88208 31.3028C7.88208 31.6816 8.00129 31.7701 8.35893 31.7681C10.6609 31.7537 12.9609 31.7681 15.2629 31.7681C15.3986 31.7619 15.5301 31.7496 15.6904 31.7393ZM18.4241 11.8334V31.7207H26.0783V10.3634L25.9118 10.2296C25.8506 10.3816 25.7698 10.5249 25.6713 10.6558C24.8684 11.4793 24.0565 12.2938 23.2357 13.0995C22.7157 13.6121 22.208 13.6965 21.5421 13.3836C21.0365 13.1448 20.5391 12.8854 20.0376 12.6342L18.4241 11.8334Z" fill="white"/>
</svg>
