<svg width="15" height="15" viewBox="0 0 15 15" fill="none" xmlns="http://www.w3.org/2000/svg">
<path d="M6.62623 0.681543C6.85404 -0.227832 8.14498 -0.227832 8.37373 0.681543L8.44029 0.949668C8.47924 1.10549 8.55917 1.24805 8.6718 1.36255C8.78443 1.47705 8.92565 1.55933 9.0808 1.60085C9.23596 1.64236 9.3994 1.6416 9.55416 1.59864C9.70892 1.55568 9.84936 1.47209 9.96092 1.35654L10.1531 1.15873C10.8047 0.484668 11.9231 1.13061 11.6653 2.03154L11.5903 2.29779C11.5461 2.45215 11.5441 2.61551 11.5843 2.77093C11.6246 2.92636 11.7057 3.06818 11.8192 3.18171C11.9327 3.29523 12.0745 3.37632 12.23 3.41657C12.3854 3.45682 12.5487 3.45476 12.7031 3.41061L12.9684 3.33467C13.8684 3.07686 14.5153 4.19529 13.8412 4.84686L13.6434 5.03904C13.5279 5.1506 13.4443 5.29105 13.4013 5.44581C13.3584 5.60057 13.3576 5.76401 13.3991 5.91916C13.4406 6.07431 13.5229 6.21553 13.6374 6.32816C13.7519 6.44079 13.8945 6.52072 14.0503 6.55967L14.3184 6.62623C15.2278 6.85404 15.2278 8.14498 14.3184 8.37373L14.0503 8.44029C13.8945 8.47924 13.7519 8.55917 13.6374 8.6718C13.5229 8.78443 13.4406 8.92565 13.3991 9.0808C13.3576 9.23596 13.3584 9.3994 13.4013 9.55416C13.4443 9.70892 13.5279 9.84936 13.6434 9.96092L13.8412 10.1531C14.5153 10.8047 13.8694 11.9231 12.9684 11.6653L12.7022 11.5903C12.5478 11.5461 12.3845 11.5441 12.229 11.5843C12.0736 11.6246 11.9318 11.7057 11.8183 11.8192C11.7047 11.9327 11.6236 12.0745 11.5834 12.23C11.5431 12.3854 11.5452 12.5487 11.5894 12.7031L11.6653 12.9684C11.9231 13.8684 10.8047 14.5153 10.1531 13.8412L9.96092 13.6434C9.84936 13.5279 9.70892 13.4443 9.55416 13.4013C9.3994 13.3584 9.23596 13.3576 9.0808 13.3991C8.92565 13.4406 8.78443 13.5229 8.6718 13.6374C8.55917 13.7519 8.47924 13.8945 8.44029 14.0503L8.37373 14.3184C8.14592 15.2278 6.85498 15.2278 6.62623 14.3184L6.55967 14.0503C6.52072 13.8945 6.44079 13.7519 6.32816 13.6374C6.21553 13.5229 6.07431 13.4406 5.91916 13.3991C5.76401 13.3576 5.60057 13.3584 5.44581 13.4013C5.29105 13.4443 5.1506 13.5279 5.03904 13.6434L4.84686 13.8412C4.19529 14.5153 3.07686 13.8694 3.33467 12.9684L3.40967 12.7022C3.45374 12.5479 3.45577 12.3847 3.41556 12.2294C3.37535 12.074 3.29435 11.9323 3.18095 11.8188C3.06756 11.7053 2.92589 11.6242 2.77061 11.5839C2.61533 11.5435 2.45209 11.5454 2.29779 11.5894L2.03154 11.6653C1.13154 11.9231 0.484668 10.8047 1.15873 10.1531L1.35654 9.96092C1.47209 9.84936 1.55568 9.70892 1.59864 9.55416C1.6416 9.3994 1.64236 9.23596 1.60085 9.0808C1.55933 8.92565 1.47705 8.78443 1.36255 8.6718C1.24805 8.55917 1.10549 8.47924 0.949668 8.44029L0.681543 8.37373C-0.227832 8.14592 -0.227832 6.85498 0.681543 6.62623L0.949668 6.55967C1.10549 6.52072 1.24805 6.44079 1.36255 6.32816C1.47705 6.21553 1.55933 6.07431 1.60085 5.91916C1.64236 5.76401 1.6416 5.60057 1.59864 5.44581C1.55568 5.29105 1.47209 5.1506 1.35654 5.03904L1.15873 4.84686C0.484668 4.19529 1.13061 3.07686 2.03154 3.33467L2.29779 3.40967C2.45205 3.45374 2.61529 3.45577 2.77061 3.41556C2.92592 3.37535 3.06766 3.29435 3.18115 3.18095C3.29464 3.06756 3.37576 2.92589 3.4161 2.77061C3.45644 2.61533 3.45455 2.45209 3.41061 2.29779L3.33467 2.03154C3.07686 1.13154 4.19529 0.484668 4.84686 1.15873L5.03904 1.35654C5.1506 1.47209 5.29105 1.55568 5.44581 1.59864C5.60057 1.6416 5.76401 1.64236 5.91916 1.60085C6.07431 1.55933 6.21553 1.47705 6.32816 1.36255C6.44079 1.24805 6.52072 1.10549 6.55967 0.949668L6.62623 0.681543ZM12.1622 7.96873H7.73436L5.07748 11.5115C5.75424 11.9203 6.52343 12.1512 7.31342 12.1826C8.10342 12.2141 8.88854 12.0452 9.59567 11.6916C10.3028 11.338 10.909 10.8112 11.3577 10.1602C11.8065 9.5093 12.0832 8.7554 12.1622 7.96873ZM12.1622 7.03123C12.0832 6.24456 11.8065 5.49066 11.3577 4.83973C10.909 4.1888 10.3028 3.66201 9.59567 3.30839C8.88854 2.95478 8.10342 2.78584 7.31342 2.81732C6.52343 2.8488 5.75424 3.07966 5.07748 3.48842L7.73436 7.03217H12.1622V7.03123ZM4.73248 3.71904C4.70436 3.73873 4.67811 3.75936 4.65092 3.77998L4.73248 3.71904ZM4.32842 4.05186C3.85063 4.49011 3.46928 5.023 3.20862 5.61663C2.94796 6.21026 2.81369 6.85164 2.81436 7.49998C2.81436 8.86404 3.39748 10.0922 4.32842 10.9481L6.91404 7.49998L4.32842 4.05186ZM4.65092 11.22L4.73248 11.2809L4.65092 11.22Z" fill="#333E46"/>
</svg>
