<svg width="16" height="16" viewBox="0 0 16 16" fill="none" xmlns="http://www.w3.org/2000/svg">
<path d="M5.74545 8.90883C5.40394 8.977 5.05086 8.95955 4.71773 8.85802C4.38461 8.7565 4.08181 8.57406 3.83636 8.32701L1.63636 6.05428C1.34336 5.76582 1.11066 5.42195 0.951831 5.04269C0.792998 4.66343 0.711201 4.25637 0.711201 3.84519C0.711201 3.43402 0.792998 3.02695 0.951831 2.64769C1.11066 2.26844 1.34336 1.92456 1.63636 1.6361V1.6361C1.92483 1.34309 2.2687 1.1104 2.64796 0.951567C3.02721 0.792735 3.43428 0.710937 3.84545 0.710938C4.25663 0.710937 4.66369 0.792735 5.04295 0.951567C5.42221 1.1104 5.76608 1.34309 6.05454 1.6361L8.29091 3.87246C8.53447 4.10596 8.71791 4.39494 8.82555 4.71472C8.9332 5.03449 8.96186 5.37557 8.90909 5.70883M5.27273 5.27246L10.7273 10.727L5.27273 5.27246ZM10.1818 7.09065C10.5263 7.0334 10.8794 7.05966 11.2116 7.16723C11.5439 7.27481 11.8454 7.46054 12.0909 7.70883L14.3636 9.99974C14.9388 10.5802 15.2614 11.3644 15.2614 12.1816C15.2614 12.9987 14.9388 13.7829 14.3636 14.3634C13.7827 14.9413 12.9967 15.2657 12.1773 15.2657C11.3579 15.2657 10.5718 14.9413 9.99091 14.3634L7.72727 12.0906C7.47861 11.8506 7.29107 11.5545 7.18036 11.2271C7.06964 10.8997 7.03897 10.5505 7.09091 10.2088L10.1818 7.09065Z" stroke="#484964" stroke-width="1.2" stroke-linecap="round" stroke-linejoin="round"/>
</svg>
