<svg width="34" height="35" viewBox="0 0 34 35" fill="none" xmlns="http://www.w3.org/2000/svg">
<g clip-path="url(#clip0_1005_54894)">
<path d="M16.7121 18.7007L19.7597 14.4496C20.1382 13.9211 20.513 13.3927 20.8915 12.866C21.6085 11.867 22.4059 11.7898 23.2836 12.6344C24.4642 13.7697 25.6431 14.9056 26.8201 16.0422C26.936 16.1544 27.0555 16.2611 27.2148 16.4041C27.3235 16.2666 27.4249 16.1507 27.5154 16.0259C28.8434 14.169 30.1713 12.311 31.4993 10.4518C31.8487 9.96135 32.2978 9.71703 32.9008 9.82019C33.1437 9.85121 33.3717 9.95387 33.5559 10.115C33.7401 10.2762 33.872 10.4886 33.9348 10.7251C33.9797 10.8956 33.9992 11.0719 33.9928 11.2481C33.9928 16.8945 33.9928 22.5416 33.9928 28.1893C33.9928 29.1068 33.4586 29.6371 32.5314 29.6371H6.51715C5.56828 29.6371 5.04857 29.1086 5.04676 28.1495C5.04676 26.499 5.02322 24.8466 5.06306 23.1961C5.07494 22.7903 5.20041 22.396 5.42522 22.0578C7.08213 19.6906 8.77344 17.3524 10.4593 14.9997C11.0714 14.1491 11.908 14.0822 12.6794 14.8188C13.8866 15.9722 15.0872 17.1274 16.2811 18.2844L16.7121 18.7007ZM31.3164 26.9695V15.3382C31.1679 15.5282 31.0701 15.6494 30.9777 15.7761C30.1967 16.862 29.4156 17.9521 28.6345 19.0464C27.9609 19.9802 27.1334 20.0472 26.2968 19.24L22.6987 15.7707C22.5864 15.6639 22.4669 15.5662 22.3365 15.4486C22.2097 15.6169 22.112 15.7435 22.0178 15.8738L18.1825 21.2307C17.4274 22.284 16.6578 22.3564 15.7342 21.466L12.1651 18.0275C12.0619 17.9279 11.9532 17.8338 11.8029 17.6999C11.7504 17.7813 11.7196 17.8338 11.6852 17.8809C10.4068 19.6677 9.12896 21.4539 7.85173 23.2396C7.77661 23.3287 7.72826 23.4372 7.71229 23.5527C7.70143 24.682 7.71229 25.8131 7.71229 26.9659L31.3164 26.9695Z" fill="white"/>
<path d="M2.65829 32.0387H32.4717C33.4242 32.0387 34.0272 32.5816 33.9982 33.4232C33.9846 33.7426 33.8563 34.0465 33.6368 34.2792C33.4173 34.5118 33.1214 34.6577 32.8031 34.69C32.6709 34.7009 32.5369 34.69 32.4047 34.69H1.59715C0.485302 34.69 0 34.2104 0 33.1101C0 22.8017 0 12.4921 0 2.18124C0 1.08452 0.928956 0.398622 1.85429 0.813058C2.0813 0.906613 2.27696 1.06284 2.41838 1.26347C2.5598 1.4641 2.64113 1.70083 2.65286 1.94597C2.66734 2.10704 2.65286 2.26992 2.65286 2.4328V32.0387H2.65829Z" fill="white"/>
</g>
<defs>
<clipPath id="clip0_1005_54894">
<rect width="34" height="34" fill="white" transform="translate(0 0.697266)"/>
</clipPath>
</defs>
</svg>
